<svg width="157" height="16" viewBox="0 0 157 16" fill="none" xmlns="http://www.w3.org/2000/svg">
<path d="M151.328 0.76C152.392 0.76 153.344 0.984 154.184 1.432C155.024 1.88 155.688 2.532 156.176 3.388C156.656 4.252 156.896 5.296 156.896 6.52C156.896 7.584 156.68 8.552 156.248 9.424C155.808 10.296 155.168 10.988 154.328 11.5C153.48 12.02 152.448 12.28 151.232 12.28C150.384 12.28 149.648 12.136 149.024 11.848C148.4 11.56 147.92 11.176 147.584 10.696C147.24 10.224 147.068 9.704 147.068 9.136C147.068 8.664 147.212 8.292 147.5 8.02C147.78 7.756 148.124 7.624 148.532 7.624C148.764 7.624 149 7.676 149.24 7.78C149.472 7.884 149.668 8.044 149.828 8.26C149.988 8.476 150.068 8.76 150.068 9.112C150.068 9.576 149.916 9.932 149.612 10.18C149.308 10.428 148.948 10.552 148.532 10.552C148.148 10.552 147.812 10.432 147.524 10.192C147.236 9.952 147.092 9.6 147.092 9.136H147.296C147.296 9.584 147.4 9.988 147.608 10.348C147.816 10.708 148.096 11.012 148.448 11.26C148.792 11.508 149.176 11.696 149.6 11.824C150.016 11.952 150.436 12.016 150.86 12.016C151.524 12.016 152.064 11.84 152.48 11.488C152.888 11.136 153.204 10.68 153.428 10.12C153.644 9.56 153.792 8.96 153.872 8.32C153.944 7.688 153.98 7.088 153.98 6.52C153.98 5.832 153.936 5.164 153.848 4.516C153.76 3.868 153.608 3.284 153.392 2.764C153.176 2.252 152.872 1.844 152.48 1.54C152.088 1.236 151.588 1.084 150.98 1.084C150.292 1.084 149.7 1.22 149.204 1.492C148.7 1.772 148.28 2.156 147.944 2.644C147.6 3.14 147.324 3.704 147.116 4.336H146.876C147.188 3.304 147.696 2.448 148.4 1.768C149.096 1.096 150.072 0.76 151.328 0.76ZM115.584 12.04V1.216L114.168 1.216V1L119.58 1V1.216H118.056V11.824H119.58V12.04H115.584ZM108.253 8.656V1.216H106.74V1H112.152V1.216H110.748V8.404C110.748 9.076 110.776 9.668 110.832 10.18C110.888 10.7 111.012 11.108 111.204 11.404C111.396 11.7 111.7 11.848 112.116 11.848C112.82 11.848 113.4 11.664 113.856 11.296C114.312 10.928 114.668 10.46 114.924 9.892C115.172 9.332 115.344 8.736 115.44 8.104C115.536 7.472 115.584 6.892 115.584 6.364L115.74 6.28C115.74 6.84 115.692 7.464 115.596 8.152C115.5 8.84 115.312 9.496 115.032 10.12C114.752 10.752 114.34 11.268 113.796 11.668C113.252 12.076 112.528 12.28 111.624 12.28C110.704 12.28 110.004 12.124 109.524 11.812C109.036 11.5 108.704 11.068 108.528 10.516C108.344 9.972 108.253 9.352 108.253 8.656ZM87.1156 12.04V11.824H88.8196L93.3556 0.76H93.8116L98.3596 11.824H99.7516V12.04H93.6316V11.824H95.5996L92.4796 3.568L89.0836 11.824H91.3276V12.04H87.1156ZM73.9477 0.76C75.0117 0.76 75.9677 0.988 76.8157 1.444C77.6637 1.9 78.3357 2.556 78.8317 3.412C79.3277 4.276 79.5757 5.312 79.5757 6.52C79.5757 7.728 79.3397 8.76 78.8677 9.616C78.3877 10.48 77.7317 11.14 76.8997 11.596C76.0677 12.052 75.1157 12.28 74.0437 12.28C72.8677 12.28 71.9157 12.044 71.1877 11.572C70.4517 11.1 69.9157 10.48 69.5797 9.712C69.2437 8.952 69.0757 8.136 69.0757 7.264H77.9677V7.48H71.9077C71.8997 7.944 71.9197 8.44 71.9677 8.968C72.0157 9.496 72.1117 9.992 72.2557 10.456C72.3997 10.928 72.6157 11.312 72.9037 11.608C73.1837 11.912 73.5637 12.064 74.0437 12.064C74.5797 12.064 75.0237 11.908 75.3757 11.596C75.7277 11.292 76.0037 10.876 76.2037 10.348C76.4037 9.828 76.5437 9.244 76.6237 8.596C76.7037 7.948 76.7437 7.28 76.7437 6.592C76.7437 5.88 76.6997 5.192 76.6117 4.528C76.5237 3.864 76.3677 3.268 76.1437 2.74C75.9197 2.22 75.6117 1.804 75.2197 1.492C74.8197 1.188 74.3077 1.036 73.6837 1.036C72.5317 1.036 71.5797 1.352 70.8277 1.984C70.0677 2.616 69.5397 3.396 69.2437 4.324H69.0037C69.3157 3.308 69.8797 2.46 70.6957 1.78C71.5117 1.1 72.5957 0.76 73.9477 0.76ZM57.4394 6.256C57.4394 7.016 57.3834 7.752 57.2714 8.464C57.1514 9.176 56.9634 9.82 56.7074 10.396C56.4514 10.972 56.1114 11.428 55.6874 11.764C55.2554 12.108 54.7234 12.28 54.0914 12.28C53.6194 12.28 53.2154 12.18 52.8794 11.98C52.5354 11.788 52.2754 11.536 52.0994 11.224C51.9234 10.912 51.8354 10.576 51.8354 10.216C51.8354 9.76 51.9754 9.372 52.2554 9.052C52.5274 8.74 52.9034 8.584 53.3834 8.584C53.8714 8.584 54.2594 8.724 54.5474 9.004C54.8274 9.284 54.9674 9.624 54.9674 10.024C54.9674 10.52 54.8074 10.904 54.4874 11.176C54.1674 11.448 53.8034 11.584 53.3954 11.584C53.0994 11.584 52.8354 11.52 52.6034 11.392C52.3714 11.264 52.1874 11.096 52.0514 10.888C51.9154 10.688 51.8474 10.464 51.8474 10.216H52.0514C52.0514 10.544 52.1394 10.848 52.3154 11.128C52.4834 11.408 52.7234 11.632 53.0354 11.8C53.3394 11.968 53.6954 12.052 54.1034 12.052C54.6794 12.052 55.1714 11.888 55.5794 11.56C55.9874 11.24 56.3194 10.804 56.5754 10.252C56.8234 9.7 57.0074 9.076 57.1274 8.38C57.2394 7.692 57.2954 6.984 57.2954 6.256H57.4394ZM57.2954 12.04V1.216L55.6754 1.216V1L61.2914 1V1.216H59.7674V11.824H61.2914V12.04H57.2954ZM23.7446 0.76C24.8086 0.76 25.7646 0.988 26.6126 1.444C27.4606 1.9 28.1326 2.556 28.6286 3.412C29.1246 4.276 29.3726 5.312 29.3726 6.52C29.3726 7.728 29.1366 8.76 28.6646 9.616C28.1846 10.48 27.5286 11.14 26.6966 11.596C25.8646 12.052 24.9126 12.28 23.8406 12.28C22.6646 12.28 21.7126 12.044 20.9846 11.572C20.2486 11.1 19.7126 10.48 19.3766 9.712C19.0406 8.952 18.8726 8.136 18.8726 7.264L27.7646 7.264V7.48L21.7046 7.48C21.6966 7.944 21.7166 8.44 21.7646 8.968C21.8126 9.496 21.9086 9.992 22.0526 10.456C22.1966 10.928 22.4126 11.312 22.7006 11.608C22.9806 11.912 23.3606 12.064 23.8406 12.064C24.3766 12.064 24.8206 11.908 25.1726 11.596C25.5246 11.292 25.8006 10.876 26.0006 10.348C26.2006 9.828 26.3406 9.244 26.4206 8.596C26.5006 7.948 26.5406 7.28 26.5406 6.592C26.5406 5.88 26.4966 5.192 26.4086 4.528C26.3206 3.864 26.1646 3.268 25.9406 2.74C25.7166 2.22 25.4086 1.804 25.0166 1.492C24.6166 1.188 24.1046 1.036 23.4806 1.036C22.3286 1.036 21.3766 1.352 20.6246 1.984C19.8646 2.616 19.3366 3.396 19.0406 4.324H18.8006C19.1126 3.308 19.6766 2.46 20.4926 1.78C21.3086 1.1 22.3926 0.76 23.7446 0.76ZM6.03632 6.256C6.03632 7.016 5.98032 7.752 5.86832 8.464C5.74832 9.176 5.56032 9.82 5.30432 10.396C5.04832 10.972 4.70832 11.428 4.28432 11.764C3.85232 12.108 3.32032 12.28 2.68832 12.28C2.21632 12.28 1.81232 12.18 1.47632 11.98C1.13231 11.788 0.872315 11.536 0.696315 11.224C0.520315 10.912 0.432315 10.576 0.432315 10.216C0.432315 9.76 0.572315 9.372 0.852315 9.052C1.12432 8.74 1.50032 8.584 1.98032 8.584C2.46832 8.584 2.85632 8.724 3.14432 9.004C3.42432 9.284 3.56432 9.624 3.56432 10.024C3.56432 10.52 3.40432 10.904 3.08432 11.176C2.76432 11.448 2.40032 11.584 1.99232 11.584C1.69632 11.584 1.43232 11.52 1.20032 11.392C0.968315 11.264 0.784315 11.096 0.648315 10.888C0.512315 10.688 0.444315 10.464 0.444315 10.216H0.648315C0.648315 10.544 0.736315 10.848 0.912315 11.128C1.08032 11.408 1.32032 11.632 1.63232 11.8C1.93632 11.968 2.29232 12.052 2.70032 12.052C3.27632 12.052 3.76832 11.888 4.17632 11.56C4.58432 11.24 4.91632 10.804 5.17232 10.252C5.42032 9.7 5.60432 9.076 5.72432 8.38C5.83632 7.692 5.89232 6.984 5.89232 6.256H6.03632ZM5.89232 12.04V1.216H4.27232V1H9.88832V1.216H8.36432V11.824H9.88832V12.04H5.89232Z" fill="black"/>
<path d="M132.999 0.76C134.143 0.76 135.135 1.024 135.975 1.552C136.807 2.08 137.451 2.78 137.907 3.652C138.363 4.524 138.591 5.48 138.591 6.52C138.591 7.56 138.363 8.516 137.907 9.388C137.451 10.26 136.807 10.96 135.975 11.488C135.135 12.016 134.143 12.28 132.999 12.28C131.847 12.28 130.851 12.016 130.011 11.488C129.171 10.96 128.527 10.26 128.079 9.388C127.623 8.516 127.395 7.56 127.395 6.52C127.395 5.48 127.623 4.524 128.079 3.652C128.527 2.78 129.171 2.08 130.011 1.552C130.851 1.024 131.847 0.76 132.999 0.76ZM132.999 0.976C132.407 0.976 131.927 1.148 131.559 1.492C131.183 1.836 130.899 2.284 130.707 2.836C130.507 3.396 130.375 4 130.311 4.648C130.239 5.296 130.203 5.92 130.203 6.52C130.203 7.128 130.239 7.752 130.311 8.392C130.375 9.04 130.507 9.64 130.707 10.192C130.899 10.752 131.183 11.204 131.559 11.548C131.927 11.892 132.407 12.064 132.999 12.064C133.591 12.064 134.071 11.892 134.439 11.548C134.807 11.204 135.091 10.752 135.291 10.192C135.483 9.64 135.615 9.04 135.687 8.392C135.751 7.752 135.783 7.128 135.783 6.52C135.783 5.92 135.751 5.296 135.687 4.648C135.615 4 135.483 3.396 135.291 2.836C135.091 2.284 134.807 1.836 134.439 1.492C134.071 1.148 133.591 0.976 132.999 0.976Z" fill="#FD0D0D"/>
<path d="M40.4771 0.832C41.2451 0.832 41.8291 0.96 42.2291 1.216C42.6211 1.48 42.8891 1.832 43.0331 2.272C43.1771 2.72 43.2491 3.224 43.2491 3.784V14.44C42.7211 14.44 42.1451 14.5 41.5211 14.62C40.8971 14.748 40.3771 14.928 39.9611 15.16V3.136C39.9611 2.536 39.8891 2.112 39.7451 1.864C39.6011 1.616 39.3691 1.492 39.0491 1.492C38.6651 1.492 38.2691 1.664 37.8611 2.008C37.4531 2.36 37.1211 2.836 36.8651 3.436L36.6731 3.352C36.9691 2.608 37.4371 2 38.0771 1.528C38.7091 1.064 39.5091 0.832 40.4771 0.832ZM44.9771 11.824V12.04H37.3931V11.824H44.9771Z" fill="#FE0505"/>
</svg>
