<svg width="209" height="20" viewBox="0 0 209 20" fill="none" xmlns="http://www.w3.org/2000/svg">
<rect width="209" height="20" fill="#333333"/>
<path d="M201.136 0.68C202.544 0.68 203.808 0.978667 204.928 1.576C206.048 2.17333 206.933 3.04267 207.584 4.184C208.224 5.336 208.544 6.728 208.544 8.36C208.544 9.77867 208.256 11.0693 207.68 12.232C207.093 13.3947 206.24 14.3173 205.12 15C203.989 15.6933 202.613 16.04 200.992 16.04C199.861 16.04 198.88 15.848 198.048 15.464C197.216 15.08 196.576 14.5627 196.128 13.912C195.68 13.272 195.456 12.5627 195.456 11.784C195.456 11.1547 195.643 10.6587 196.016 10.296C196.389 9.944 196.853 9.768 197.408 9.768C197.707 9.768 198.016 9.83733 198.336 9.976C198.656 10.1147 198.923 10.328 199.136 10.616C199.349 10.9147 199.456 11.2933 199.456 11.752C199.456 12.3707 199.253 12.8453 198.848 13.176C198.432 13.5067 197.952 13.672 197.408 13.672C196.885 13.672 196.437 13.512 196.064 13.192C195.68 12.872 195.488 12.4027 195.488 11.784L195.648 11.784C195.648 12.4133 195.792 12.9733 196.08 13.464C196.357 13.9653 196.736 14.3867 197.216 14.728C197.685 15.08 198.208 15.3413 198.784 15.512C199.349 15.6933 199.92 15.784 200.496 15.784C201.392 15.784 202.117 15.544 202.672 15.064C203.216 14.584 203.632 13.96 203.92 13.192C204.208 12.4347 204.405 11.6293 204.512 10.776C204.608 9.92267 204.656 9.11733 204.656 8.36C204.656 7.44267 204.603 6.54667 204.496 5.672C204.379 4.79733 204.181 4.008 203.904 3.304C203.616 2.61067 203.211 2.05067 202.688 1.624C202.165 1.208 201.493 1 200.672 1C199.733 1 198.928 1.192 198.256 1.576C197.573 1.96 196.997 2.488 196.528 3.16C196.059 3.84267 195.685 4.62133 195.408 5.496H195.2C195.616 4.10933 196.288 2.95733 197.216 2.04C198.144 1.13333 199.451 0.68 201.136 0.68ZM153.572 15.72V1.192H151.716V1H158.884V1.192H156.884V15.528H158.884V15.72H153.572ZM143.812 11.208V1.192H141.812V1H148.98V1.192H147.124V10.904C147.124 11.8 147.166 12.6 147.252 13.304C147.326 14.008 147.492 14.5573 147.748 14.952C148.004 15.3573 148.409 15.56 148.964 15.56C149.945 15.56 150.745 15.3093 151.364 14.808C151.972 14.3173 152.436 13.688 152.756 12.92C153.076 12.152 153.294 11.3413 153.412 10.488C153.518 9.63467 153.572 8.856 153.572 8.152L153.716 8.024C153.716 8.78133 153.662 9.61867 153.556 10.536C153.438 11.4533 153.204 12.328 152.852 13.16C152.5 14.0027 151.961 14.6907 151.236 15.224C150.51 15.768 149.54 16.04 148.324 16.04C147.097 16.04 146.158 15.832 145.508 15.416C144.857 15 144.414 14.424 144.18 13.688C143.934 12.9627 143.812 12.136 143.812 11.208ZM115.627 15.72V15.528H117.979L124.091 0.68H124.587L130.683 15.528H132.539V15.72H124.379V15.528H127.019L122.811 4.424L118.235 15.528H121.243V15.72H115.627ZM98.0865 0.68C99.5052 0.68 100.785 0.984 101.926 1.592C103.057 2.2 103.958 3.07467 104.63 4.216C105.292 5.368 105.622 6.74933 105.622 8.36C105.622 9.97067 105.302 11.3467 104.662 12.488C104.012 13.64 103.132 14.52 102.022 15.128C100.902 15.736 99.6278 16.04 98.1985 16.04C96.6198 16.04 95.3398 15.72 94.3585 15.08C93.3772 14.4507 92.6625 13.624 92.2145 12.6C91.7558 11.5867 91.5265 10.4987 91.5265 9.336H103.462V9.528H95.3025C95.2918 10.1573 95.3185 10.8347 95.3825 11.56C95.4465 12.2853 95.5798 12.9733 95.7825 13.624C95.9745 14.2747 96.2625 14.808 96.6465 15.224C97.0305 15.64 97.5478 15.848 98.1985 15.848C98.9132 15.848 99.5052 15.6347 99.9745 15.208C100.444 14.792 100.817 14.2267 101.094 13.512C101.361 12.808 101.548 12.0187 101.654 11.144C101.761 10.2693 101.814 9.37333 101.814 8.456C101.814 7.50667 101.756 6.584 101.638 5.688C101.521 4.792 101.313 3.98667 101.014 3.272C100.716 2.568 100.3 2.00267 99.7665 1.576C99.2332 1.14933 98.5505 0.936 97.7185 0.936C96.1398 0.936 94.8385 1.37333 93.8145 2.248C92.7798 3.13333 92.0598 4.216 91.6545 5.496H91.4465C91.8625 4.13067 92.6198 2.984 93.7185 2.056C94.8172 1.13867 96.2732 0.68 98.0865 0.68ZM76.0282 8.056C76.0282 9.06933 75.9589 10.0507 75.8202 11C75.6816 11.9493 75.4469 12.8027 75.1162 13.56C74.7856 14.3173 74.3429 14.92 73.7882 15.368C73.2229 15.816 72.5189 16.04 71.6762 16.04C71.0362 16.04 70.4922 15.9067 70.0442 15.64C69.5962 15.384 69.2496 15.0427 69.0042 14.616C68.7589 14.2 68.6362 13.7467 68.6362 13.256C68.6362 12.6587 68.8229 12.1467 69.1962 11.72C69.5696 11.2933 70.0762 11.08 70.7162 11.08C71.3669 11.08 71.8842 11.2667 72.2682 11.64C72.6522 12.0133 72.8442 12.4667 72.8442 13C72.8442 13.672 72.6309 14.1893 72.2042 14.552C71.7669 14.9253 71.2762 15.112 70.7322 15.112C70.3376 15.112 69.9856 15.0213 69.6762 14.84C69.3562 14.6693 69.1109 14.4453 68.9402 14.168C68.7589 13.8907 68.6682 13.5867 68.6682 13.256H68.8442C68.8442 13.7147 68.9616 14.136 69.1962 14.52C69.4202 14.9147 69.7456 15.2347 70.1722 15.48C70.5989 15.7253 71.1056 15.848 71.6922 15.848C72.4922 15.848 73.1642 15.6293 73.7083 15.192C74.2416 14.7547 74.6682 14.1627 74.9882 13.416C75.3082 12.68 75.5376 11.848 75.6762 10.92C75.8149 9.992 75.8842 9.03733 75.8842 8.056H76.0282ZM75.8842 15.72V1.192H73.7882V1L81.1962 1V1.192L79.1962 1.192V15.528L81.1962 15.528V15.72L75.8842 15.72ZM31.2115 0.68C32.6302 0.68 33.9102 0.984 35.0515 1.592C36.1822 2.2 37.0835 3.07467 37.7555 4.216C38.4168 5.368 38.7475 6.74933 38.7475 8.36C38.7475 9.97067 38.4275 11.3467 37.7875 12.488C37.1368 13.64 36.2568 14.52 35.1475 15.128C34.0275 15.736 32.7528 16.04 31.3235 16.04C29.7448 16.04 28.4648 15.72 27.4835 15.08C26.5022 14.4507 25.7875 13.624 25.3395 12.6C24.8808 11.5867 24.6515 10.4987 24.6515 9.336H36.5875V9.528H28.4275C28.4168 10.1573 28.4435 10.8347 28.5075 11.56C28.5715 12.2853 28.7048 12.9733 28.9075 13.624C29.0995 14.2747 29.3875 14.808 29.7715 15.224C30.1555 15.64 30.6728 15.848 31.3235 15.848C32.0382 15.848 32.6302 15.6347 33.0995 15.208C33.5688 14.792 33.9422 14.2267 34.2195 13.512C34.4862 12.808 34.6728 12.0187 34.7795 11.144C34.8862 10.2693 34.9395 9.37333 34.9395 8.456C34.9395 7.50667 34.8808 6.584 34.7635 5.688C34.6462 4.792 34.4382 3.98667 34.1395 3.272C33.8408 2.568 33.4248 2.00267 32.8915 1.576C32.3582 1.14933 31.6755 0.936 30.8435 0.936C29.2648 0.936 27.9635 1.37333 26.9395 2.248C25.9048 3.13333 25.1848 4.216 24.7795 5.496H24.5715C24.9875 4.13067 25.7448 2.984 26.8435 2.056C27.9422 1.13867 29.3982 0.68 31.2115 0.68ZM7.55324 8.056C7.55324 9.06933 7.48391 10.0507 7.34524 11C7.20658 11.9493 6.97191 12.8027 6.64124 13.56C6.31058 14.3173 5.86791 14.92 5.31324 15.368C4.74791 15.816 4.04391 16.04 3.20124 16.04C2.56124 16.04 2.01724 15.9067 1.56924 15.64C1.12124 15.384 0.774577 15.0427 0.529243 14.616C0.28391 14.2 0.161243 13.7467 0.161243 13.256C0.161243 12.6587 0.34791 12.1467 0.721243 11.72C1.09458 11.2933 1.60124 11.08 2.24124 11.08C2.89191 11.08 3.40924 11.2667 3.79324 11.64C4.17724 12.0133 4.36924 12.4667 4.36924 13C4.36924 13.672 4.15591 14.1893 3.72924 14.552C3.29191 14.9253 2.80124 15.112 2.25724 15.112C1.86258 15.112 1.51058 15.0213 1.20124 14.84C0.881243 14.6693 0.63591 14.4453 0.465243 14.168C0.28391 13.8907 0.193243 13.5867 0.193243 13.256H0.369244C0.369244 13.7147 0.486577 14.136 0.721243 14.52C0.945243 14.9147 1.27058 15.2347 1.69724 15.48C2.12391 15.7253 2.63058 15.848 3.21724 15.848C4.01724 15.848 4.68924 15.6293 5.23324 15.192C5.76658 14.7547 6.19324 14.1627 6.51324 13.416C6.83324 12.68 7.06258 11.848 7.20124 10.92C7.33991 9.992 7.40924 9.03733 7.40924 8.056H7.55324ZM7.40924 15.72V1.192H5.31324V1H12.7212V1.192H10.7212V15.528H12.7212V15.72H7.40924Z" fill="white"/>
<path d="M176.713 0.68C178.249 0.68 179.577 1.032 180.697 1.736C181.806 2.44 182.665 3.37333 183.273 4.536C183.881 5.69867 184.185 6.97333 184.185 8.36C184.185 9.74667 183.881 11.0213 183.273 12.184C182.665 13.3467 181.806 14.28 180.697 14.984C179.577 15.688 178.249 16.04 176.713 16.04C175.177 16.04 173.854 15.688 172.745 14.984C171.625 14.28 170.766 13.3467 170.169 12.184C169.561 11.0213 169.257 9.74667 169.257 8.36C169.257 6.97333 169.561 5.69867 170.169 4.536C170.766 3.37333 171.625 2.44 172.745 1.736C173.854 1.032 175.177 0.68 176.713 0.68ZM176.713 0.872C175.924 0.872 175.284 1.10667 174.793 1.576C174.302 2.04533 173.929 2.65333 173.673 3.4C173.406 4.15733 173.23 4.97333 173.145 5.848C173.049 6.72267 173.001 7.56 173.001 8.36C173.001 9.17067 173.049 10.008 173.145 10.872C173.23 11.7467 173.406 12.5573 173.673 13.304C173.929 14.0613 174.302 14.6747 174.793 15.144C175.284 15.6133 175.924 15.848 176.713 15.848C177.502 15.848 178.142 15.6133 178.633 15.144C179.124 14.6747 179.502 14.0613 179.769 13.304C180.025 12.5573 180.201 11.7467 180.297 10.872C180.382 10.008 180.425 9.17067 180.425 8.36C180.425 7.56 180.382 6.72267 180.297 5.848C180.201 4.97333 180.025 4.15733 179.769 3.4C179.502 2.65333 179.124 2.04533 178.633 1.576C178.142 1.10667 177.502 0.872 176.713 0.872Z" fill="#FD0D0D"/>
<path d="M53.5375 0.776C54.5615 0.776 55.3402 0.946667 55.8735 1.288C56.3962 1.64 56.7535 2.10933 56.9455 2.696C57.1375 3.29333 57.2335 3.96533 57.2335 4.712V18.92C56.5188 18.92 55.7455 19 54.9135 19.16C54.0815 19.3307 53.3882 19.5707 52.8335 19.88V3.752C52.8335 2.952 52.7375 2.38667 52.5455 2.056C52.3535 1.72533 52.0442 1.56 51.6175 1.56C51.0948 1.56 50.5508 1.8 49.9855 2.28C49.4202 2.77067 48.9668 3.432 48.6255 4.264L48.4495 4.2C48.8335 3.18667 49.4575 2.36 50.3215 1.72C51.1748 1.09067 52.2468 0.776 53.5375 0.776ZM59.5375 15.528V15.72L49.4095 15.72V15.528L59.5375 15.528Z" fill="#FE0505"/>
</svg>
