<svg width="109" height="106" viewBox="0 0 109 106" fill="none" xmlns="http://www.w3.org/2000/svg">
<path d="M8 8H101V98H8V8Z" fill="#333333"/>
<path d="M74.703 57.9806L77.113 42.6238H62.0376V32.6626C62.0376 28.4603 64.1397 24.3617 70.8917 24.3617H77.7499V11.2876C77.7499 11.2876 71.5287 10.25 65.5835 10.25C53.1623 10.25 45.0513 17.6067 45.0513 30.9194V42.6238H31.2499V57.9806H45.0513V95.1067C47.8222 95.5321 50.6568 95.75 53.5445 95.75C56.4321 95.75 59.2667 95.5321 62.0376 95.1067V57.9806H74.703Z" fill="#4E4C4C"/>
<path d="M8 8V0H0V8H8ZM101 8H109V0H101V8ZM101 98V106H109V98H101ZM8 98H0V106H8V98ZM8 16H101V0H8V16ZM93 8V98H109V8H93ZM101 90H8V106H101V90ZM16 98V8H0V98H16Z" fill="#333333"/>
</svg>
